<?xml version="1.0" encoding="utf-8"?>
<!-- Generator: Adobe Illustrator 21.0.0, SVG Export Plug-In . SVG Version: 6.00 Build 0)  -->
<svg version="1.1" id="Layer_1" xmlns="http://www.w3.org/2000/svg" xmlns:xlink="http://www.w3.org/1999/xlink" x="0px" y="0px"
	 viewBox="0 0 323.6 53" style="enable-background:new 0 0 323.6 53;" xml:space="preserve">
<style type="text/css">
	.st0{fill:#FFFFFF;}
	.st1{fill:#F3798A;}
</style>
<polygon class="st0" points="0,53 0,6 5.3,0 40,0 40,39.7 29.7,53 29.7,8.7 9,8.7 9,39.7 "/>
<g>
	<path class="st0" d="M65.9,1.8c3.4,0,6.1,1.1,8.3,3.3V4.3c0-1.3,0.5-2,1.6-2c1.2,0,1.8,0.7,1.8,2.2v0.3c0,0.1-0.1,0.6-0.2,1.6
		c-0.1,1-0.2,2.1-0.2,3.5c0,0.2,0,0.7,0.1,1.7l0.2,2.1c0,0.2,0.1,0.4,0.1,0.7c0,1.7-0.6,2.5-1.9,2.5c-1.3,0-2-0.7-2-2.1v-0.3
		l0.1-1.4c0-0.5,0.1-0.9,0.1-1.1c0-2.1-0.7-3.7-2.1-4.9c-1.4-1.2-3.3-1.8-5.8-1.8c-2.2,0-4,0.6-5.4,1.7c-1.3,1.1-2,2.6-2,4.5
		c0,2.2,1,3.8,3,4.8c1.1,0.6,3,1.1,5.8,1.5c4.1,0.7,6.9,1.6,8.4,2.7c2.3,1.7,3.4,4.1,3.4,7.2c0,3.2-1.2,5.9-3.5,7.9
		c-2.3,2-5.3,3.1-9,3.1c-3.9,0-7.2-1.2-9.8-3.7c0,0.1,0,0.3,0,0.5c0,0.2,0,0.3,0,0.3c0.1,0.5,0.2,0.9,0.2,1.1c0,1.3-0.6,1.9-1.9,1.9
		c-1.4,0-2.1-0.7-2.1-2.2c0-0.2,0.1-0.3,0.2-0.4l0.2-2.7c0.1-1.3,0.2-2.2,0.2-2.6c0-0.7-0.1-1.7-0.3-3.1c-0.2-1.4-0.3-2.4-0.3-3.1
		c0-1.6,0.7-2.3,2-2.3c1.3,0,2,0.8,2,2.3v0.9c0,0.3,0,0.7,0,1.2c0,2.6,0.8,4.7,2.5,6.2c1.7,1.5,3.9,2.3,6.7,2.3
		c2.6,0,4.7-0.6,6.2-1.9c1.5-1.2,2.3-2.9,2.3-5.1c0-3.3-2.1-5.3-6.2-6l-3-0.5c-2.9-0.5-5.2-1.1-6.8-1.8c-1.5-0.7-2.7-1.7-3.5-3.1
		c-0.9-1.4-1.3-3-1.3-4.7c0-3,1.1-5.5,3.3-7.4C59.5,2.7,62.4,1.8,65.9,1.8z"/>
	<path class="st0" d="M97.9,30.3V27c0-1.4,0.7-2.1,1.9-2.1s1.8,0.8,1.8,2.4c0,3.8-0.5,6.4-1.4,7.9c-1.3,2-3.4,3-6.4,3
		c-2.7,0-4.7-0.9-5.9-2.6c-0.9-1.3-1.3-3.5-1.3-6.5V16.5c0-0.7-0.3-1.1-1-1.1h-1.7c-0.6,0-1-0.2-1.4-0.5c-0.4-0.4-0.6-0.8-0.6-1.3
		c0-0.5,0.2-0.9,0.5-1.3c0.4-0.4,0.8-0.6,1.2-0.6h2c0.6,0,0.9-0.3,0.9-1V5.4c0-1.3,0.7-2,2-2c1.2,0,1.9,0.7,1.9,2v5.5
		c0,0.5,0.3,0.8,0.9,0.8H97c1.3,0,2,0.6,2,1.8c0,1.3-0.7,1.9-2.1,1.9h-5.7c-0.5,0-0.7,0.4-0.7,1.1v12.7c0,3.6,1.2,5.4,3.6,5.4
		C96.5,34.7,97.7,33.3,97.9,30.3z"/>
	<path class="st0" d="M126.4,38.1c-2.8,0-4.6-1.2-5.2-3.7c-1.8,2.6-4.5,3.9-8.3,3.9c-2.8,0-5-0.7-6.7-2.1c-1.7-1.4-2.5-3.2-2.5-5.5
		c0-2.9,1.2-5,3.7-6.3c0.9-0.5,1.7-0.9,2.4-1s2-0.4,4.1-0.6c2.9-0.3,4.8-0.7,5.7-1.3c0.9-0.6,1.3-1.6,1.3-3.1c0-1.4-0.5-2.5-1.5-3.3
		c-1-0.8-2.4-1.2-4.1-1.2c-1.6,0-3,0.4-4.4,1.3c-0.5,0.3-0.8,0.7-0.8,1.1c0,0.1,0.2,0.3,0.5,0.5c0.5,0.3,0.7,0.9,0.7,1.8
		c0,0.7-0.3,1.3-0.8,1.7c-0.5,0.4-1.1,0.7-1.9,0.7c-0.9,0-1.6-0.3-2.3-0.9c-0.6-0.6-0.9-1.4-0.9-2.3c0-1.9,1-3.6,2.9-5
		c1.9-1.4,4.2-2.1,7-2.1c6.3,0,9.4,3,9.4,9v10.4c0,1.7,0,2.6,0.1,2.9c0.2,1.2,0.8,1.8,1.8,1.8c1.2,0,1.8-1.1,1.8-3.3v-2.5
		c0-1.1,0.5-1.6,1.6-1.6c1.1,0,1.7,0.8,1.7,2.5v0.3v3C131.7,36.5,129.9,38.1,126.4,38.1z M120.7,27.8v-3.7c-0.8,0.7-1.6,1.2-2.4,1.5
		c-0.8,0.3-2.3,0.5-4.5,0.7c-3.9,0.4-5.9,1.8-5.9,4.4c0,1.3,0.5,2.3,1.4,3.1c0.9,0.8,2.2,1.1,3.9,1.1c2.3,0,4.1-0.6,5.5-1.9
		C120,31.8,120.7,30,120.7,27.8z"/>
	<path class="st0" d="M141.3,13.1v1.7c1.9-2.7,4.6-4,7.9-4c3.5,0,6.2,1.2,8.2,3.6c2,2.4,3.1,5.6,3.1,9.7c0,4.4-1.1,7.9-3.2,10.5
		c-2.2,2.6-5,3.9-8.7,3.9c-3,0-5.4-1.1-7.3-3.2v4.3c0,1.3,0,2.2,0.1,2.5c0.2,1.1,0.7,1.6,1.5,1.6c0.2,0,0.6-0.1,1.1-0.2
		c0.5-0.1,0.8-0.2,1.1-0.2c1.1,0,1.7,0.6,1.7,1.7c0,1.1-0.7,1.7-2.2,1.7c-0.5,0-1.3-0.1-2.3-0.2c-0.8-0.1-1.9-0.2-3.4-0.2
		c-0.8,0-1.5,0-2.1,0.1c-1.4,0.2-2.3,0.3-2.7,0.3c-0.6,0-1.1-0.2-1.5-0.5c-0.4-0.4-0.6-0.8-0.6-1.2c0-1.1,0.6-1.6,1.7-1.6
		c0.2,0,0.5,0,1,0.1c0.6,0.1,1,0.2,1.3,0.2c0.6,0,1.1-0.3,1.2-1c0.2-0.7,0.2-2.5,0.3-5.6V17c0-1.6-0.5-2.4-1.3-2.4
		c-0.2,0-0.6,0.1-1.1,0.2c-0.5,0.1-0.9,0.2-1.2,0.2c-1.3,0-1.9-0.6-1.9-1.7c0-1.1,0.8-1.7,2.3-1.7c0.4,0,0.8,0,1.2,0.1
		c0.9,0.1,1.5,0.1,1.9,0.1c0.3,0,0.8,0,1.3-0.1s1-0.1,1.3-0.1C140.9,11.6,141.3,12.1,141.3,13.1z M142.1,19.4
		c-0.3,1.3-0.5,3-0.5,4.9c0,0.1,0,0.4-0.1,0.8c0,0.3,0,0.6,0,0.7c0,2.3,0.2,4,0.6,5s1.1,2,2.3,2.8c1.1,0.8,2.5,1.2,4.2,1.2
		c2.5,0,4.4-0.9,5.8-2.7c1.4-1.8,2-4.4,2-7.7c0-6.9-2.5-10.4-7.4-10.4c-1.7,0-3.1,0.5-4.4,1.5C143.2,16.6,142.4,17.9,142.1,19.4z"/>
	<path class="st0" d="M172.6,15.8v16.1c0,1.8,0.5,2.6,1.4,2.6c0.2,0,0.6-0.1,1.3-0.3c0.4-0.1,0.7-0.1,0.8-0.1c1.2,0,1.7,0.6,1.7,1.8
		c0,1.1-0.7,1.7-2.1,1.7c-0.5,0-1.4-0.1-2.6-0.2c-1.2-0.1-2.1-0.2-2.8-0.2c-0.5,0-1.4,0.1-2.5,0.2c-1.1,0.1-1.9,0.2-2.4,0.2h-0.3
		c-1.4,0-2.2-0.6-2.2-1.9c0-1.1,0.6-1.6,1.8-1.6c0.1,0,0.2,0,0.4,0c0.2,0,0.4,0.1,0.5,0.1c0.9,0.2,1.4,0.3,1.5,0.3
		c0.6,0,1-0.3,1.2-0.8c0.2-0.5,0.3-1.9,0.3-4.2l0.1-3.6v-8.1V8.6c0-1-0.1-1.7-0.2-2.1c-0.2-0.8-0.7-1.2-1.5-1.2
		c-0.1,0-0.6,0.1-1.3,0.2c-0.4,0.1-0.7,0.1-0.9,0.1c-1.2,0-1.8-0.6-1.8-1.7c0-1.1,0.7-1.7,2.1-1.7c0.4,0,0.7,0,1,0.1l1.2,0.2
		c0.6,0.1,1,0.1,1.4,0.1c0.3,0,0.9-0.1,1.6-0.2c0.7-0.1,1.2-0.2,1.6-0.2c0.8,0,1.2,0.5,1.2,1.5c0,0.3,0,0.6-0.1,0.8
		C172.7,7.2,172.6,11,172.6,15.8z"/>
	<path class="st0" d="M204,22.2c0,1.3-0.1,2.1-0.3,2.4c-0.2,0.3-0.7,0.4-1.5,0.4h-16.5c-0.4,0-0.7,0.1-0.9,0.2
		c-0.1,0.1-0.2,0.3-0.2,0.6c0,2.6,0.8,4.7,2.3,6.5c1.6,1.7,3.5,2.6,5.8,2.6c1.5,0,2.9-0.4,4.2-1.2c1.3-0.8,2.1-1.9,2.5-3.2l0.5-1.5
		c0.2-0.8,0.8-1.2,1.7-1.2c1.3,0,1.9,0.7,1.9,2c0,2.2-1.1,4.2-3.4,6c-2.3,1.7-4.9,2.6-7.8,2.6c-3.6,0-6.5-1.2-8.6-3.7
		c-2.1-2.4-3.2-5.7-3.2-9.8c0-4.2,1.1-7.6,3.4-10.3c2.3-2.6,5.2-3.9,8.9-3.9c3.2,0,5.9,1.1,8,3.3C202.9,16.1,204,18.9,204,22.2z
		 M185.2,20.9c0,0.5,0.4,0.7,1.1,0.7h12.4c0.7,0,1.1-0.2,1.1-0.7c0-1.8-0.7-3.4-2.1-4.8c-1.4-1.3-3-2-4.9-2c-1.9,0-3.7,0.7-5.3,2.1
		S185.2,19.2,185.2,20.9z"/>
	<path class="st1" d="M223.3,1.8c3.8,0,7,1.5,9.4,4.4V5.6c0-0.2,0-0.4,0-0.6c-0.1-0.2-0.1-0.3-0.1-0.4c-0.1-0.8-0.1-1.1-0.1-1.1
		c0-1.2,0.5-1.8,1.6-1.8c1.1,0,1.7,0.7,1.7,2.2c0,0.3,0,1.1-0.1,2.5c-0.2,1.7-0.3,2.9-0.3,3.6c0,0.9,0.1,1.9,0.2,2.8l0.2,2v0.5
		c0,1.6-0.6,2.3-1.9,2.3c-1.3,0-2-0.7-2-2.2v-1.8c0.1-2.5-0.7-4.5-2.3-6c-1.6-1.5-3.7-2.3-6.4-2.3c-3.4,0-6.1,1.3-8,3.9
		c-1.9,2.6-2.9,6.2-2.9,10.9c0,4.7,1,8.4,3,11.1c2,2.6,4.8,4,8.3,4c1.9,0,3.7-0.5,5.2-1.4c1.5-0.9,2.6-2.2,3.2-3.7
		c0.4-1,0.6-2.3,0.6-4c0-1.6,0.7-2.4,2-2.4c1.4,0,2.1,0.8,2.1,2.4c0,3.7-1.3,6.7-3.8,9.1c-2.6,2.3-5.9,3.5-9.9,3.5
		c-4.7,0-8.4-1.6-11.2-4.9c-2.8-3.3-4.2-7.6-4.2-13.1c0-5.6,1.4-10.2,4.3-13.6C214.9,3.5,218.6,1.8,223.3,1.8z"/>
	<path class="st1" d="M252.7,38.3c-3.6,0-6.5-1.3-8.7-3.8c-2.2-2.5-3.3-5.9-3.3-10.1c0-4.2,1.1-7.6,3.3-10.1
		c2.2-2.5,5.1-3.8,8.8-3.8c3.8,0,6.7,1.2,8.9,3.7c2.2,2.5,3.3,5.8,3.3,10c0,4.2-1.1,7.6-3.4,10.2C259.4,37.1,256.4,38.3,252.7,38.3z
		 M253,14.1c-2.4,0-4.3,0.8-5.7,2.5s-2.1,4.1-2.3,7.2v0.7c0,3.2,0.7,5.8,2,7.6c1.4,1.8,3.3,2.8,5.7,2.8c2.5,0,4.5-0.9,5.9-2.8
		c1.4-1.8,2.1-4.4,2.1-7.7C260.8,17.6,258.2,14.1,253,14.1z"/>
	<path class="st1" d="M280.7,10.7c3.4,0,6,1.3,7.7,4V9.4c0-1.4,0-2.2-0.1-2.5c-0.2-1.1-0.7-1.6-1.4-1.6c-0.3,0-0.7,0.1-1.2,0.2
		c-0.5,0.1-0.9,0.2-1.2,0.2c-1.3,0-1.9-0.6-1.9-1.7c0-1.1,0.9-1.7,2.6-1.7c0.3,0,0.8,0,1.5,0.1c1.1,0.1,1.7,0.2,1.7,0.2
		c0.3,0,0.8,0,1.3-0.1c0.6-0.1,1-0.1,1.3-0.1c1,0,1.5,0.7,1.5,2.1v0.6c0,0.1-0.1,1-0.1,2.7c0,0.2-0.1,1.5-0.2,4
		c-0.1,1.7-0.1,3-0.1,3.9v5.1v8.7c0,2.3,0.1,3.7,0.3,4.3c0.2,0.6,0.6,0.8,1.3,0.8c0.5,0,0.8,0,1.1-0.1c0.6-0.1,0.9-0.1,1.2-0.1
		c1.3,0,2,0.6,2,1.7c0,1.2-0.8,1.8-2.3,1.8c-0.3,0-0.9,0-1.6-0.1c-0.7-0.1-1.2-0.1-1.6-0.1c-0.1,0-0.5,0-1.2,0.1
		c-0.4,0.1-0.8,0.2-1.1,0.2c-0.9,0-1.4-0.6-1.4-1.9v-0.3v-0.9c-1.8,2.5-4.5,3.7-8,3.7c-3.5,0-6.3-1.3-8.5-3.8
		c-2.1-2.6-3.2-5.9-3.2-10c0-4.2,1.1-7.5,3.2-10C274.3,11.9,277.1,10.7,280.7,10.7z M288.1,29c0.1-1.1,0.2-2.6,0.2-4.4
		c0-2.3-0.1-3.9-0.3-4.7c-0.3-1.7-1.1-3.1-2.2-4c-1.4-1.1-3-1.7-4.8-1.7c-2.4,0-4.3,0.9-5.7,2.7c-1.4,1.8-2.1,4.3-2.1,7.5
		c0,3.3,0.7,5.9,2.1,7.7c1.4,1.9,3.4,2.8,5.8,2.8c1.9,0,3.4-0.5,4.7-1.6S287.9,30.8,288.1,29z"/>
	<path class="st1" d="M323.6,22.2c0,1.3-0.1,2.1-0.3,2.4c-0.2,0.3-0.7,0.4-1.5,0.4h-16.5c-0.4,0-0.7,0.1-0.9,0.2
		c-0.1,0.1-0.2,0.3-0.2,0.6c0,2.6,0.8,4.7,2.3,6.5c1.6,1.7,3.5,2.6,5.8,2.6c1.5,0,2.9-0.4,4.2-1.2c1.3-0.8,2.1-1.9,2.5-3.2l0.5-1.5
		c0.2-0.8,0.8-1.2,1.7-1.2c1.3,0,1.9,0.7,1.9,2c0,2.2-1.1,4.2-3.4,6c-2.3,1.7-4.9,2.6-7.8,2.6c-3.6,0-6.5-1.2-8.6-3.7
		c-2.1-2.4-3.2-5.7-3.2-9.8c0-4.2,1.1-7.6,3.4-10.3c2.3-2.6,5.2-3.9,8.9-3.9c3.2,0,5.9,1.1,8,3.3C322.6,16.1,323.6,18.9,323.6,22.2z
		 M304.8,20.9c0,0.5,0.4,0.7,1.1,0.7h12.4c0.7,0,1.1-0.2,1.1-0.7c0-1.8-0.7-3.4-2.1-4.8c-1.4-1.3-3-2-4.9-2c-1.9,0-3.7,0.7-5.3,2.1
		S304.8,19.2,304.8,20.9z"/>
</g>
</svg>
